<?xml version="1.0" encoding="UTF-8" standalone="no"?>
<!DOCTYPE svg PUBLIC "-//W3C//DTD SVG 1.1//EN" "http://www.w3.org/Graphics/SVG/1.1/DTD/svg11.dtd">
<svg width="100%" height="100%" viewBox="0 0 100 100" version="1.1" xmlns="http://www.w3.org/2000/svg" xmlns:xlink="http://www.w3.org/1999/xlink" xml:space="preserve" style="fill-rule:evenodd;clip-rule:evenodd;stroke-linejoin:round;stroke-miterlimit:1.41421;">
    <g transform="matrix(1.66667,-1.35708e-16,-1.35708e-16,1.66667,8.88178e-16,-35.3256)">
        <path d="M51,30L51,4C51,1.791 49.209,0 47,0C44.791,0 43,1.791 43,4L43,30L17,30L17,4C17,1.791 15.209,0 13,0C10.791,0 9,1.791 9,4L9,30L0,30L0,46C0,60.514 10.307,72.619 24,75.398L24,100L29.994,110.396L36,100L36,75.398C49.693,72.619 60,60.514 60,46L60,30L51,30Z" style="fill:rgb(41,50,60);fill-rule:nonzero;"/>
    </g>
    <g transform="matrix(0.851088,0,0,0.851088,13.0541,70.5181)">
        <path d="M18.264,-50.975L28.009,-50.975L28.009,-50.361C28.009,-49.589 27.861,-48.987 27.566,-48.555C27.271,-48.124 26.941,-47.772 26.578,-47.499C26.396,-47.363 26.203,-47.158 25.998,-46.886C25.794,-46.613 25.692,-46.272 25.692,-45.864L25.692,-9.677C25.692,-6.179 24.681,-3.6 22.659,-1.942C20.637,-0.284 17.946,0.545 14.584,0.545C11.176,0.545 8.473,-0.284 6.474,-1.942C4.475,-3.6 3.476,-6.179 3.476,-9.677L3.476,-45.795C3.476,-46.25 3.441,-46.522 3.373,-46.613C3.305,-46.704 3.158,-46.84 2.93,-47.022C2.567,-47.249 2.181,-47.613 1.772,-48.112C1.363,-48.612 1.159,-49.316 1.159,-50.225L1.159,-50.975L11.108,-50.975L11.108,-49.884C11.108,-49.112 10.892,-48.476 10.461,-47.976C10.029,-47.476 9.632,-47.09 9.268,-46.818C9.041,-46.681 8.905,-46.522 8.859,-46.341C8.814,-46.159 8.791,-45.864 8.791,-45.455L8.791,-8.927C8.791,-8.019 8.973,-7.246 9.336,-6.61C9.7,-5.974 10.165,-5.44 10.733,-5.009C11.301,-4.577 11.926,-4.259 12.607,-4.055C13.289,-3.85 13.948,-3.748 14.584,-3.748C15.22,-3.748 15.89,-3.85 16.594,-4.055C17.298,-4.259 17.946,-4.577 18.536,-5.009C19.127,-5.44 19.615,-5.974 20.001,-6.61C20.388,-7.246 20.581,-8.019 20.581,-8.927L20.581,-45.795C20.581,-46.25 20.513,-46.602 20.376,-46.852C20.24,-47.102 20.058,-47.317 19.831,-47.499C19.468,-47.726 19.116,-48.022 18.775,-48.385C18.434,-48.749 18.264,-49.362 18.264,-50.225L18.264,-50.975Z" style="fill:white;fill-rule:nonzero;"/>
        <path d="M55.677,-4.225C55.859,-4.089 56.04,-3.998 56.222,-3.953C56.404,-3.907 56.563,-3.828 56.699,-3.714C56.835,-3.6 56.949,-3.419 57.04,-3.169C57.131,-2.919 57.176,-2.544 57.176,-2.044L57.176,0L55.2,0L53.019,0C51.883,0 51.145,-0.159 50.804,-0.477C50.464,-0.795 50.111,-1.477 49.748,-2.521C49.657,-2.794 49.51,-3.226 49.305,-3.816C49.101,-4.407 48.851,-5.1 48.555,-5.895C48.26,-6.69 47.942,-7.553 47.601,-8.484C47.261,-9.416 46.909,-10.358 46.545,-11.313C45.727,-13.493 44.819,-15.901 43.819,-18.536L43.478,-19.49L43.206,-18.673L38.504,-4.975C38.458,-4.839 38.424,-4.645 38.401,-4.396C38.379,-4.146 38.504,-3.907 38.776,-3.68C39.14,-3.407 39.526,-3.033 39.935,-2.556C40.344,-2.079 40.548,-1.454 40.548,-0.681L40.548,0L30.326,0L30.326,-0.681C30.326,-1.499 30.485,-2.147 30.803,-2.624C31.121,-3.101 31.462,-3.453 31.825,-3.68C31.961,-3.771 32.166,-3.896 32.438,-4.055C32.711,-4.214 32.961,-4.52 33.188,-4.975L40.275,-25.419C40.275,-25.465 40.298,-25.555 40.344,-25.692C40.344,-25.783 40.355,-25.885 40.378,-25.998C40.4,-26.112 40.412,-26.214 40.412,-26.305C40.412,-26.532 40.366,-26.782 40.275,-27.055C40.23,-27.191 40.185,-27.305 40.139,-27.395L33.393,-45.591C33.165,-45.954 33.018,-46.159 32.95,-46.204C32.881,-46.25 32.62,-46.386 32.166,-46.613C31.939,-46.704 31.734,-46.784 31.553,-46.852C31.371,-46.92 31.212,-47.022 31.075,-47.158C30.939,-47.295 30.837,-47.488 30.769,-47.738C30.701,-47.988 30.667,-48.362 30.667,-48.862L30.667,-50.975L34.755,-50.975C35.755,-50.975 36.482,-50.804 36.936,-50.464C37.391,-50.123 37.754,-49.43 38.027,-48.385L43.342,-32.643L43.547,-31.961L43.751,-32.575L48.59,-45.727C48.635,-45.909 48.635,-46.113 48.59,-46.341C48.544,-46.568 48.408,-46.772 48.181,-46.954C47.863,-47.181 47.533,-47.601 47.192,-48.215C46.852,-48.828 46.681,-49.521 46.681,-50.293L46.681,-50.975L56.631,-50.975L56.631,-50.293C56.631,-49.475 56.438,-48.771 56.052,-48.181C55.666,-47.59 55.291,-47.181 54.927,-46.954C54.791,-46.863 54.598,-46.727 54.348,-46.545C54.098,-46.363 53.905,-46.023 53.769,-45.523L46.886,-27.395L46.75,-26.987C46.704,-26.85 46.681,-26.623 46.681,-26.305C46.681,-26.078 46.704,-25.896 46.75,-25.76C46.75,-25.624 46.772,-25.51 46.818,-25.419L54.45,-5.316C54.541,-4.952 54.677,-4.725 54.859,-4.634C55.041,-4.543 55.313,-4.407 55.677,-4.225Z" style="fill:white;fill-rule:nonzero;"/>
        <path d="M75.781,-50.975C77.598,-50.975 79.143,-50.702 80.415,-50.157C81.687,-49.612 82.709,-48.851 83.481,-47.874C84.254,-46.897 84.81,-45.727 85.151,-44.364C85.492,-43.001 85.662,-41.479 85.662,-39.798L85.662,-10.631C85.662,-7.224 84.878,-4.6 83.311,-2.76C81.744,-0.92 79.188,0 75.644,0L60.175,0L60.175,-1.022C60.175,-2.022 60.3,-2.68 60.549,-2.999C60.799,-3.317 61.151,-3.589 61.606,-3.816C62.196,-4.134 62.492,-4.566 62.492,-5.111L62.492,-45.046C62.492,-45.455 62.401,-45.75 62.219,-45.932C62.037,-46.113 61.81,-46.272 61.538,-46.409C60.629,-46.818 60.175,-47.885 60.175,-49.612L60.175,-50.975L75.781,-50.975ZM80.346,-40.616C80.346,-42.343 79.983,-43.762 79.256,-44.875C78.529,-45.989 77.507,-46.545 76.189,-46.545L68.761,-46.545C68.125,-46.545 67.807,-46.227 67.807,-45.591L67.807,-4.975C67.807,-4.43 68.057,-4.157 68.557,-4.157L75.508,-4.157C77.098,-4.157 78.302,-4.634 79.12,-5.588C79.938,-6.542 80.346,-8.041 80.346,-10.086L80.346,-40.616Z" style="fill:white;fill-rule:nonzero;"/>
    </g>
</svg>
