<?xml version="1.0" encoding="UTF-8" standalone="no"?>
<!DOCTYPE svg PUBLIC "-//W3C//DTD SVG 1.1//EN" "http://www.w3.org/Graphics/SVG/1.1/DTD/svg11.dtd">
<svg width="100%" height="100%" viewBox="0 0 100 100" version="1.1" xmlns="http://www.w3.org/2000/svg" xmlns:xlink="http://www.w3.org/1999/xlink" xml:space="preserve" style="fill-rule:evenodd;clip-rule:evenodd;stroke-linejoin:round;stroke-miterlimit:1.41421;">
    <g transform="matrix(0.853187,0,0,0.853187,7.34064,4.52153)">
        <path d="M15,14.674L15,-28.659C15,-32.341 17.985,-35.326 21.667,-35.326C25.348,-35.326 28.333,-32.341 28.333,-28.659L28.333,14.674L71.667,14.674L71.667,-28.659C71.667,-32.341 74.652,-35.326 78.333,-35.326C82.015,-35.326 85,-32.341 85,-28.659L85,14.674L100,14.674L100,41.341C100,65.531 82.822,85.706 60,90.338L60,131.341L49.99,148.667L40,131.341L40,90.338C17.178,85.706 0,65.531 0,41.341L0,14.674L15,14.674Z"/>
    </g>
</svg>
