<?xml version="1.0" encoding="UTF-8" standalone="no"?>
<!DOCTYPE svg PUBLIC "-//W3C//DTD SVG 1.1//EN" "http://www.w3.org/Graphics/SVG/1.1/DTD/svg11.dtd">
<svg width="100%" height="100%" viewBox="0 0 100 100" version="1.1" xmlns="http://www.w3.org/2000/svg" xmlns:xlink="http://www.w3.org/1999/xlink" xml:space="preserve" style="fill-rule:evenodd;clip-rule:evenodd;stroke-linejoin:round;stroke-miterlimit:1.41421;">
    <path d="M15,14.674L15,-28.659C15,-32.341 17.985,-35.326 21.667,-35.326C25.348,-35.326 28.333,-32.341 28.333,-28.659L28.333,14.674L71.667,14.674L71.667,-28.659C71.667,-32.341 74.652,-35.326 78.333,-35.326C82.015,-35.326 85,-32.341 85,-28.659L85,14.674L100,14.674L100,41.341C100,65.531 82.822,85.706 60,90.338L60,131.341L49.99,148.667L40,131.341L40,90.338C17.178,85.706 0,65.531 0,41.341L0,14.674L15,14.674ZM29.758,61.702C29.758,63.21 29.294,64.322 28.366,65.037C27.438,65.752 26.452,66.11 25.408,66.11C24.325,66.11 23.31,65.752 22.363,65.037C21.416,64.322 20.942,63.21 20.942,61.702L20.942,32.702C20.942,32.315 20.99,32.045 21.087,31.89C21.184,31.735 21.329,31.6 21.522,31.484C21.831,31.252 22.17,30.923 22.537,30.498C22.904,30.073 23.088,29.531 23.088,28.874L23.088,27.134L13.228,27.134L13.228,28.874C13.228,29.531 13.383,30.073 13.692,30.498C14.001,30.923 14.311,31.252 14.62,31.484C14.813,31.6 14.958,31.735 15.055,31.89C15.152,32.045 15.2,32.315 15.2,32.702L15.2,62.166C15.2,63.635 15.461,64.921 15.983,66.023C16.505,67.125 17.23,68.034 18.158,68.749C19.086,69.464 20.169,69.996 21.406,70.344C22.643,70.692 23.977,70.866 25.408,70.866C26.839,70.866 28.163,70.692 29.381,70.344C30.599,69.996 31.662,69.464 32.571,68.749C33.48,68.034 34.195,67.125 34.717,66.023C35.239,64.921 35.5,63.635 35.5,62.166L35.5,32.528C35.539,32.219 35.606,31.996 35.703,31.861C35.8,31.726 35.925,31.6 36.08,31.484C36.389,31.252 36.67,30.923 36.921,30.498C37.172,30.073 37.298,29.531 37.298,28.874L37.298,27.134L27.786,27.134L27.786,28.874C27.786,29.531 27.941,30.073 28.25,30.498C28.559,30.923 28.869,31.252 29.178,31.484C29.333,31.6 29.468,31.726 29.584,31.861C29.7,31.996 29.758,32.219 29.758,32.528L29.758,61.702ZM44.142,27.192L39.734,27.192L39.734,28.526C39.734,30.189 40.217,31.213 41.184,31.6C41.571,31.755 41.803,31.929 41.88,32.122C41.957,32.315 42.093,32.567 42.286,32.876L47.448,47.956C47.448,48.033 47.467,48.13 47.506,48.246C47.506,48.323 47.516,48.41 47.535,48.507C47.554,48.604 47.564,48.671 47.564,48.71C47.564,48.787 47.554,48.865 47.535,48.942C47.516,49.019 47.506,49.097 47.506,49.174C47.467,49.29 47.448,49.406 47.448,49.522L41.938,65.066C41.745,65.453 41.532,65.714 41.3,65.849C41.068,65.984 40.894,66.091 40.778,66.168C40.469,66.361 40.179,66.661 39.908,67.067C39.637,67.473 39.502,68.024 39.502,68.72L39.502,70.518L49.188,70.518L49.188,68.72C49.188,68.063 49.043,67.531 48.753,67.125C48.463,66.719 48.163,66.4 47.854,66.168C47.622,65.975 47.516,65.772 47.535,65.559C47.554,65.346 47.583,65.201 47.622,65.124L49.13,60.02C49.555,58.512 50.077,56.811 50.696,54.916C50.696,54.8 50.715,54.684 50.754,54.568C50.831,54.297 50.889,54.162 50.928,54.162C51.005,54.162 51.083,54.317 51.16,54.626C51.199,54.781 51.218,54.916 51.218,55.032C51.218,55.032 51.334,55.341 51.566,55.96C51.798,56.579 52.078,57.352 52.407,58.28C52.736,59.208 53.093,60.213 53.48,61.296C53.867,62.379 54.224,63.394 54.553,64.341C54.882,65.288 55.152,66.091 55.365,66.748C55.578,67.405 55.703,67.753 55.742,67.792C55.974,68.372 56.167,68.836 56.322,69.184C56.477,69.532 56.66,69.812 56.873,70.025C57.086,70.238 57.347,70.373 57.656,70.431C57.965,70.489 58.371,70.518 58.874,70.518L62.818,70.518L62.818,69.126C62.818,68.275 62.75,67.599 62.615,67.096C62.48,66.593 62.199,66.245 61.774,66.052C61.349,65.897 61.049,65.723 60.875,65.53C60.701,65.337 60.575,65.085 60.498,64.776L54.35,49.174C54.311,49.097 54.292,49.019 54.292,48.942L54.292,48.594C54.292,48.439 54.311,48.304 54.35,48.188C54.35,48.072 54.369,47.975 54.408,47.898L59.976,32.702C60.092,32.277 60.256,31.987 60.469,31.832C60.682,31.677 60.846,31.561 60.962,31.484C61.271,31.291 61.561,30.991 61.832,30.585C62.103,30.179 62.238,29.628 62.238,28.932L62.238,27.192L52.958,27.192L52.958,28.932C52.958,29.589 53.103,30.131 53.393,30.556C53.683,30.981 53.963,31.291 54.234,31.484C54.427,31.639 54.505,31.813 54.466,32.006C54.427,32.199 54.408,32.373 54.408,32.528L51.45,41.518C51.411,41.711 51.373,41.885 51.334,42.04C51.257,42.349 51.16,42.504 51.044,42.504C50.928,42.504 50.831,42.349 50.754,42.04L50.638,41.576C49.981,39.565 49.381,37.748 48.84,36.124C48.608,35.428 48.376,34.742 48.144,34.065C47.912,33.388 47.709,32.76 47.535,32.18C47.361,31.6 47.206,31.107 47.071,30.701C46.936,30.295 46.868,30.034 46.868,29.918C46.597,29.029 46.298,28.352 45.969,27.888C45.64,27.424 45.031,27.192 44.142,27.192ZM77.492,70.518C80.779,70.518 83.147,69.658 84.597,67.937C86.047,66.216 86.772,63.925 86.772,61.064L86.772,36.53C86.772,35.099 86.598,33.804 86.25,32.644C85.902,31.484 85.351,30.498 84.597,29.686C83.843,28.874 82.886,28.246 81.726,27.801C80.566,27.356 79.155,27.134 77.492,27.134L65.022,27.134L65.022,28.816C65.022,29.589 65.128,30.189 65.341,30.614C65.554,31.039 65.853,31.349 66.24,31.542C66.433,31.619 66.607,31.764 66.762,31.977C66.917,32.19 66.994,32.47 66.994,32.818L66.994,64.834C66.994,65.375 66.762,65.781 66.298,66.052C65.911,66.245 65.602,66.564 65.37,67.009C65.138,67.454 65.022,68.101 65.022,68.952L65.022,70.518L77.492,70.518ZM77.492,31.948C78.729,31.948 79.628,32.354 80.189,33.166C80.75,33.978 81.03,35.061 81.03,36.414L81.03,61.296C81.03,62.649 80.75,63.732 80.189,64.544C79.628,65.356 78.729,65.762 77.492,65.762L73.316,65.762C73.123,65.762 72.968,65.675 72.852,65.501C72.736,65.327 72.678,65.143 72.678,64.95L72.678,32.76C72.678,32.567 72.746,32.383 72.881,32.209C73.016,32.035 73.219,31.948 73.49,31.948L77.492,31.948Z"/>
</svg>
